<?xml version="1.0" encoding="UTF-8"?>
<svg xmlns="http://www.w3.org/2000/svg" id="Layer_3" data-name="Layer 3" viewBox="0 0 64 64" width="512" height="512"><path d="M44.689,20.725,55.247,10.167a5.015,5.015,0,1,0-1.414-1.414L43.275,19.311A16.9,16.9,0,0,0,33,15.051V10.9a5,5,0,1,0-2,0v4.152a16.9,16.9,0,0,0-10.275,4.26L10.167,8.753a5.015,5.015,0,1,0-1.414,1.414L19.311,20.725A16.9,16.9,0,0,0,15.051,31H10.9a5,5,0,1,0,0,2h4.152a16.9,16.9,0,0,0,4.26,10.275L8.753,53.833a5.015,5.015,0,1,0,1.414,1.414L20.725,44.689A16.9,16.9,0,0,0,31,48.949V53.1a5,5,0,1,0,2,0V48.949a16.9,16.9,0,0,0,10.275-4.26L53.833,55.247a5.015,5.015,0,1,0,1.414-1.414L44.689,43.275A16.9,16.9,0,0,0,48.949,33H53.1a5,5,0,1,0,0-2H48.949A16.9,16.9,0,0,0,44.689,20.725ZM6,35a3,3,0,1,1,3-3A3,3,0,0,1,6,35Zm52-6a3,3,0,1,1-3,3A3,3,0,0,1,58,29ZM58,3a3,3,0,1,1-3,3A3,3,0,0,1,58,3ZM29,6a3,3,0,1,1,3,3A3,3,0,0,1,29,6ZM6,9A3,3,0,1,1,9,6,3,3,0,0,1,6,9ZM6,61a3,3,0,1,1,3-3A3,3,0,0,1,6,61Zm29-3a3,3,0,1,1-3-3A3,3,0,0,1,35,58Zm23-3a3,3,0,1,1-3,3A3,3,0,0,1,58,55ZM32,47A15,15,0,1,1,47,32,15.017,15.017,0,0,1,32,47Z"/><path d="M41.316,26.051l-9-3a1,1,0,0,0-.632,0l-9,3A1,1,0,0,0,22,27V37a1,1,0,0,0,.684.949l9,3a1,1,0,0,0,.632,0l9-3A1,1,0,0,0,42,37V27A1,1,0,0,0,41.316,26.051Zm-9.316-1L37.838,27,32,28.946,26.162,27Zm-8,3.334,7,2.333v7.891l-7-2.333Zm9,10.224V30.721l7-2.333v7.891Z"/></svg>
